<svg width="80" height="81" viewBox="0 0 80 81" fill="none" xmlns="http://www.w3.org/2000/svg">
<rect y="0.5" width="80" height="80" rx="8" fill="#142E67"/>
<g clip-path="url(#clip0_13_448)">
<path d="M21.25 53L28.0812 29.0917C28.1747 28.7654 28.3718 28.4785 28.6428 28.2742C28.9138 28.07 29.244 27.9595 29.5833 27.9595C29.9227 27.9595 30.2528 28.07 30.5238 28.2742C30.7948 28.4785 30.992 28.7654 31.0854 29.0917L37.9167 53" stroke="white" stroke-width="2" stroke-linecap="round" stroke-linejoin="round"/>
<path d="M58.7501 28H50.4167C48.7591 28 47.1694 28.6585 45.9973 29.8306C44.8252 31.0027 44.1667 32.5924 44.1667 34.25C44.1667 35.9076 44.8252 37.4973 45.9973 38.6694C47.1694 39.8415 48.7591 40.5 50.4167 40.5H52.5001C54.1577 40.5 55.7474 41.1585 56.9195 42.3306C58.0916 43.5027 58.7501 45.0924 58.7501 46.75C58.7501 48.4076 58.0916 49.9973 56.9195 51.1694C55.7474 52.3415 54.1577 53 52.5001 53H44.1667" stroke="white" stroke-width="2" stroke-linecap="round" stroke-linejoin="round"/>
<path d="M50.4167 57.1667V53" stroke="white" stroke-width="2" stroke-linecap="round" stroke-linejoin="round"/>
<path d="M52.5 28V23.8333" stroke="white" stroke-width="2" stroke-linecap="round" stroke-linejoin="round"/>
<path d="M24.375 44.6667H34.7917" stroke="white" stroke-width="2" stroke-linecap="round" stroke-linejoin="round"/>
</g>
<defs>
<clipPath id="clip0_13_448">
<rect width="50" height="50" fill="white" transform="translate(15 15.5)"/>
</clipPath>
</defs>
</svg>
