<svg width="50" height="50" viewBox="0 0 50 50" fill="none" xmlns="http://www.w3.org/2000/svg">
<g opacity="0.0168933">
<path d="M25 0C38.7975 0 50 11.2025 50 25C50 38.7975 38.7975 50 25 50C11.2025 50 0 38.7975 0 25C0 11.2025 11.2025 0 25 0Z" fill="#00BC4F"/>
</g>
<g opacity="0.353972">
<path d="M25 8.4837C34.1154 8.4837 41.5164 15.8847 41.5164 25.0001C41.5164 34.1155 34.1154 41.5165 25 41.5165C15.8846 41.5165 8.48364 34.1155 8.48364 25.0001C8.48364 15.8847 15.8846 8.4837 25 8.4837Z" fill="#00BC4F"/>
</g>
<g opacity="0.691051">
<path d="M24.9998 16.9672C29.4331 16.9672 33.0325 20.5667 33.0325 25C33.0325 29.4332 29.4331 33.0327 24.9998 33.0327C20.5665 33.0327 16.967 29.4332 16.967 25C16.967 20.5667 20.5665 16.9672 24.9998 16.9672Z" fill="#00BC4F"/>
</g>
</svg>
