<svg width="80" height="81" viewBox="0 0 80 81" fill="none" xmlns="http://www.w3.org/2000/svg">
<rect y="0.5" width="80" height="80" rx="8" fill="#2A4628"/>
<g clip-path="url(#clip0_5_162)">
<path d="M49.494 31.5714C49.0793 30.3948 48.322 29.3693 47.3195 28.6267C46.3171 27.8842 45.1153 27.4586 43.869 27.4048H35.5356C33.878 27.4048 32.2883 28.0632 31.1162 29.2353C29.9441 30.4074 29.2856 31.9972 29.2856 33.6548C29.2856 35.3124 29.9441 36.9021 31.1162 38.0742C32.2883 39.2463 33.878 39.9048 35.5356 39.9048H43.869C45.5266 39.9048 47.1163 40.5632 48.2884 41.7353C49.4605 42.9074 50.119 44.4972 50.119 46.1548C50.119 47.8124 49.4605 49.4021 48.2884 50.5742C47.1163 51.7463 45.5266 52.4048 43.869 52.4048H35.5356C34.2893 52.3509 33.0875 51.9254 32.0851 51.1828C31.0826 50.4402 30.3253 49.4147 29.9106 48.2381" stroke="white" stroke-width="3.5" stroke-linecap="round" stroke-linejoin="round"/>
<path d="M40 21.4524V27.7024M40 52.7024V58.9524" stroke="white" stroke-width="3.5" stroke-linecap="round" stroke-linejoin="round"/>
</g>
<defs>
<clipPath id="clip0_5_162">
<rect width="50" height="50" fill="white" transform="translate(15 15.5)"/>
</clipPath>
</defs>
</svg>
