<svg width="80" height="81" viewBox="0 0 80 81" fill="none" xmlns="http://www.w3.org/2000/svg">
<rect y="0.5" width="80" height="80" rx="8" fill="#2C4D54"/>
<g clip-path="url(#clip0_13_213)">
<path d="M44.0938 56.3125V47.125C44.0938 46.7189 43.9324 46.3294 43.6453 46.0422C43.3581 45.7551 42.9686 45.5937 42.5625 45.5937H36.4375C36.0314 45.5937 35.6419 45.7551 35.3547 46.0422C35.0676 46.3294 34.9062 46.7189 34.9062 47.125V56.3125C34.9062 56.7186 34.7449 57.1081 34.4578 57.3952C34.1706 57.6824 33.7811 57.8437 33.375 57.8437H24.1875C23.7814 57.8437 23.3919 57.6824 23.1047 57.3952C22.8176 57.1081 22.6562 56.7186 22.6562 56.3125V38.6074C22.6597 38.3955 22.7055 38.1864 22.7909 37.9925C22.8764 37.7985 22.9998 37.6236 23.1539 37.4781L38.4664 23.5629C38.7487 23.3046 39.1174 23.1614 39.5 23.1614C39.8826 23.1614 40.2513 23.3046 40.5336 23.5629L55.8461 37.4781C56.0002 37.6236 56.1236 37.7985 56.2091 37.9925C56.2945 38.1864 56.3403 38.3955 56.3438 38.6074V56.3125C56.3438 56.7186 56.1824 57.1081 55.8953 57.3952C55.6081 57.6824 55.2186 57.8437 54.8125 57.8437H45.625C45.2189 57.8437 44.8294 57.6824 44.5422 57.3952C44.2551 57.1081 44.0938 56.7186 44.0938 56.3125Z" stroke="white" stroke-width="1.53125" stroke-linecap="round" stroke-linejoin="round"/>
</g>
<defs>
<clipPath id="clip0_13_213">
<rect width="49" height="49" fill="white" transform="translate(15 16.5)"/>
</clipPath>
</defs>
</svg>
