<svg width="80" height="81" viewBox="0 0 80 81" fill="none" xmlns="http://www.w3.org/2000/svg">
<rect y="0.5" width="80" height="80" rx="8" fill="#5B2C2B"/>
<g clip-path="url(#clip0_13_469)">
<path d="M50.4167 54.0416C48.7825 54.7907 47.006 55.1784 45.2083 55.1784C43.4107 55.1784 41.6342 54.7907 40 54.0416C38.2916 53.4519 36.4757 53.2396 34.6774 53.4195C32.879 53.5993 31.1411 54.167 29.5833 55.0833C30.6988 54.6972 31.6821 54.0032 32.4195 53.0814C33.1569 52.1597 33.6182 51.048 33.75 49.875V34.25C33.761 32.4248 34.3709 30.6538 35.486 29.2088C36.6011 27.7639 38.1598 26.7251 39.9225 26.2518C41.6853 25.7786 43.5547 25.8972 45.2435 26.5894C46.9324 27.2816 48.3472 28.5091 49.2708 30.0833M43.9583 42.5833H29.375" stroke="white" stroke-width="2" stroke-linecap="round" stroke-linejoin="round"/>
</g>
<defs>
<clipPath id="clip0_13_469">
<rect width="50" height="50" fill="white" transform="translate(15 15.5)"/>
</clipPath>
</defs>
</svg>
